<mxfile host="Electron" modified="2024-08-22T08:34:19.918Z" agent="Mozilla/5.0 (X11; Linux x86_64) AppleWebKit/537.36 (KHTML, like Gecko) draw.io/22.1.18 Chrome/120.0.6099.199 Electron/28.1.2 Safari/537.36" etag="V0BYSOJbN1EDPledEcNh" version="22.1.18" type="device">
  <diagram name="Page-1" id="tVLz-H8TcDohW4CUsqgu">
    <mxGraphModel dx="1368" dy="963" grid="1" gridSize="10" guides="1" tooltips="1" connect="1" arrows="1" fold="1" page="1" pageScale="1" pageWidth="850" pageHeight="1100" math="0" shadow="0">
      <root>
        <mxCell id="0" />
        <mxCell id="1" parent="0" />
        <mxCell id="M-7buxWzd58EejQ7mZZN-6" style="edgeStyle=none;html=1;entryX=0.018;entryY=0.457;entryDx=0;entryDy=0;entryPerimeter=0;" edge="1" parent="1" source="M-7buxWzd58EejQ7mZZN-7" target="M-7buxWzd58EejQ7mZZN-10">
          <mxGeometry relative="1" as="geometry" />
        </mxCell>
        <mxCell id="M-7buxWzd58EejQ7mZZN-7" value="root&lt;br&gt;generator" style="shape=step;perimeter=stepPerimeter;whiteSpace=wrap;html=1;fixedSize=1;fillColor=#e1d5e7;strokeColor=#9673a6;" vertex="1" parent="1">
          <mxGeometry x="250" y="295" width="100" height="40" as="geometry" />
        </mxCell>
        <mxCell id="M-7buxWzd58EejQ7mZZN-8" style="edgeStyle=none;html=1;entryX=0;entryY=0.5;entryDx=0;entryDy=0;" edge="1" parent="1" source="M-7buxWzd58EejQ7mZZN-9" target="M-7buxWzd58EejQ7mZZN-7">
          <mxGeometry relative="1" as="geometry" />
        </mxCell>
        <mxCell id="M-7buxWzd58EejQ7mZZN-9" value="root.yaml" style="shape=note;whiteSpace=wrap;html=1;backgroundOutline=1;darkOpacity=0.05;align=left;" vertex="1" parent="1">
          <mxGeometry x="140" y="295" width="90" height="40" as="geometry" />
        </mxCell>
        <mxCell id="M-7buxWzd58EejQ7mZZN-10" value="ebcl_rdb2.tar" style="shape=cube;whiteSpace=wrap;html=1;boundedLbl=1;backgroundOutline=1;darkOpacity=0.05;darkOpacity2=0.1;" vertex="1" parent="1">
          <mxGeometry x="370" y="290" width="100" height="50" as="geometry" />
        </mxCell>
      </root>
    </mxGraphModel>
  </diagram>
</mxfile>
